<svg xmlns="http://www.w3.org/2000/svg" xmlns:xlink="http://www.w3.org/1999/xlink" width="500" zoomAndPan="magnify" viewBox="0 0 375 149.999998" height="200" preserveAspectRatio="xMidYMid meet" version="1.0"><defs><g/></defs><rect x="-37.5" width="450" fill="#ffffff" y="-15" height="179.999997" fill-opacity="1"/><rect x="-37.5" width="450" fill="#f4f4f4" y="-15" height="179.999997" fill-opacity="1"/><g fill="#2b2b2b" fill-opacity="1"><g transform="translate(166.407614, 141.217668)"><g><path d="M 12.410156 0 L 76.644531 0 L 77.460938 -12 C 61.367188 -11.863281 43.777344 -11.457031 27.273438 -11.457031 C 27.003906 -24.546875 26.867188 -39.277344 26.867188 -53.457031 C 26.867188 -69.824219 27.003906 -86.734375 27.273438 -104.054688 L 12.410156 -104.054688 C 12.546875 -86.597656 12.820312 -68.871094 12.820312 -51.957031 C 12.820312 -35.046875 12.546875 -17.320312 12.410156 0 Z M 12.410156 0 "/></g></g></g><g fill="#2b2b2b" fill-opacity="1"><g transform="translate(130.468226, 114.349447)"><g><path d="M 12.410156 0 L 76.644531 0 L 77.460938 -12 C 61.367188 -11.863281 43.777344 -11.457031 27.273438 -11.457031 C 27.003906 -24.546875 26.867188 -39.277344 26.867188 -53.457031 C 26.867188 -69.824219 27.003906 -86.734375 27.273438 -104.054688 L 12.410156 -104.054688 C 12.546875 -86.597656 12.820312 -68.871094 12.820312 -51.957031 C 12.820312 -35.046875 12.546875 -17.320312 12.410156 0 Z M 12.410156 0 "/></g></g></g></svg>