<svg xmlns="http://www.w3.org/2000/svg" xmlns:xlink="http://www.w3.org/1999/xlink" width="500" zoomAndPan="magnify" viewBox="0 0 375 149.999998" height="200" preserveAspectRatio="xMidYMid meet" version="1.0"><defs><g/></defs><rect x="-37.5" width="450" fill="#ffffff" y="-15" height="179.999997" fill-opacity="1"/><rect x="-37.5" width="450" fill="#2b2b2b" y="-15" height="179.999997" fill-opacity="1"/><g fill="#f4f4f4" fill-opacity="1"><g transform="translate(166.408103, 141.21682)"><g><path d="M 12.410156 0 L 76.640625 0 L 77.460938 -12 C 61.367188 -11.863281 43.777344 -11.457031 27.273438 -11.457031 C 27 -24.546875 26.867188 -39.273438 26.867188 -53.457031 C 26.867188 -69.824219 27 -86.734375 27.273438 -104.050781 L 12.410156 -104.050781 C 12.546875 -86.597656 12.820312 -68.867188 12.820312 -51.957031 C 12.820312 -35.046875 12.546875 -17.320312 12.410156 0 Z M 12.410156 0 "/></g></g></g><g fill="#f4f4f4" fill-opacity="1"><g transform="translate(130.468715, 114.348599)"><g><path d="M 12.410156 0 L 76.640625 0 L 77.460938 -12 C 61.367188 -11.863281 43.777344 -11.457031 27.273438 -11.457031 C 27 -24.546875 26.867188 -39.273438 26.867188 -53.457031 C 26.867188 -69.824219 27 -86.734375 27.273438 -104.050781 L 12.410156 -104.050781 C 12.546875 -86.597656 12.820312 -68.867188 12.820312 -51.957031 C 12.820312 -35.046875 12.546875 -17.320312 12.410156 0 Z M 12.410156 0 "/></g></g></g></svg>