<svg xmlns="http://www.w3.org/2000/svg" xmlns:xlink="http://www.w3.org/1999/xlink" width="500" zoomAndPan="magnify" viewBox="0 0 375 374.999991" height="500" preserveAspectRatio="xMidYMid meet" version="1.0"><defs><g/></defs><rect x="-37.5" width="450" fill="#ffffff" y="-37.499999" height="449.999989" fill-opacity="1"/><rect x="-37.5" width="450" fill="#2b2b2b" y="-37.499999" height="449.999989" fill-opacity="1"/><g fill="#f4f4f4" fill-opacity="1"><g transform="translate(156.918751, 287.691543)"><g><path d="M 17.867188 0 L 110.347656 0 L 111.527344 -17.277344 C 88.359375 -17.082031 63.027344 -16.492188 39.269531 -16.492188 C 38.878906 -35.34375 38.679688 -56.546875 38.679688 -76.96875 C 38.679688 -100.53125 38.878906 -124.878906 39.269531 -149.816406 L 17.867188 -149.816406 C 18.0625 -124.683594 18.457031 -99.15625 18.457031 -74.808594 C 18.457031 -50.460938 18.0625 -24.9375 17.867188 0 Z M 17.867188 0 "/></g></g></g><g fill="#f4f4f4" fill-opacity="1"><g transform="translate(105.173857, 249.007133)"><g><path d="M 17.867188 0 L 110.347656 0 L 111.527344 -17.277344 C 88.359375 -17.082031 63.027344 -16.492188 39.269531 -16.492188 C 38.878906 -35.34375 38.679688 -56.546875 38.679688 -76.96875 C 38.679688 -100.53125 38.878906 -124.878906 39.269531 -149.816406 L 17.867188 -149.816406 C 18.0625 -124.683594 18.457031 -99.15625 18.457031 -74.808594 C 18.457031 -50.460938 18.0625 -24.9375 17.867188 0 Z M 17.867188 0 "/></g></g></g><path fill="#2b2b2b" d="M 105.71875 185.171875 L 269.167969 185.171875 C 273.082031 185.171875 276.253906 188.347656 276.253906 192.261719 L 276.253906 206.4375 C 276.253906 210.351562 273.082031 213.527344 269.167969 213.527344 L 105.71875 213.527344 C 101.804688 213.527344 98.632812 210.351562 98.632812 206.4375 L 98.632812 192.261719 C 98.632812 188.347656 101.804688 185.171875 105.71875 185.171875 " fill-opacity="1" fill-rule="nonzero"/><g fill="#f4f4f4" fill-opacity="1"><g transform="translate(108.349341, 206.474283)"><g><path d="M 1.84375 0 L 7.753906 0 C 12.351562 -0.0820312 14.601562 -2.714844 14.601562 -7.753906 C 14.601562 -13.609375 11.867188 -15.449219 6.621094 -15.449219 L 1.84375 -15.449219 C 1.882812 -13.507812 1.921875 -9.820312 1.921875 -7.695312 C 1.921875 -5.589844 1.882812 -2.046875 1.84375 0 Z M 3.988281 -1.539062 L 3.988281 -13.910156 L 6.863281 -13.910156 C 10.976562 -13.910156 12.472656 -12.089844 12.472656 -7.675781 C 12.472656 -3.441406 10.792969 -1.539062 6.984375 -1.539062 Z M 3.988281 -1.539062 "/></g></g></g><g fill="#f4f4f4" fill-opacity="1"><g transform="translate(127.122145, 206.474283)"><g><path d="M 1.84375 0 L 12.980469 0 L 12.980469 -1.640625 L 4.007812 -1.640625 L 4.007812 -7.027344 L 12.292969 -6.964844 L 12.292969 -8.585938 L 4.007812 -8.523438 L 4.007812 -13.808594 L 12.839844 -13.808594 L 12.839844 -15.449219 L 1.84375 -15.449219 C 1.902344 -13.648438 1.945312 -9.863281 1.945312 -7.695312 C 1.945312 -5.609375 1.902344 -1.761719 1.84375 0 Z M 1.84375 0 "/></g></g></g><g fill="#f4f4f4" fill-opacity="1"><g transform="translate(144.274946, 206.474283)"><g><path d="M 7.835938 0.261719 C 11.746094 0.261719 14.074219 -1.335938 14.132812 -5.367188 L 14.132812 -10.589844 C 14.132812 -12.3125 14.132812 -13.910156 14.15625 -15.449219 L 11.988281 -15.449219 C 12.046875 -13.304688 12.070312 -8.929688 12.070312 -6.519531 C 12.070312 -4.597656 11.867188 -3.765625 11.320312 -2.53125 C 10.632812 -1.722656 9.476562 -1.316406 8.039062 -1.316406 C 4.902344 -1.316406 3.949219 -3.363281 3.949219 -6.5625 C 3.949219 -8.871094 3.96875 -13.425781 3.988281 -15.449219 L 1.84375 -15.449219 C 1.863281 -14.09375 1.882812 -12.617188 1.882812 -10.957031 L 1.882812 -6.640625 C 1.882812 -2.167969 3.078125 0.261719 7.835938 0.261719 Z M 7.835938 0.261719 "/></g></g></g><g fill="#f4f4f4" fill-opacity="1"><g transform="translate(163.452742, 206.474283)"><g><path d="M 0.464844 0 L 2.894531 0 L 7.371094 -7.085938 L 7.734375 -7.085938 L 12.210938 0 L 14.640625 0 C 13.546875 -1.578125 11.664062 -4.453125 10.246094 -6.703125 C 9.902344 -7.269531 9.273438 -7.835938 8.523438 -7.835938 L 8.523438 -8.058594 C 9.316406 -8.078125 9.863281 -8.523438 10.207031 -9.09375 C 11.625 -11.300781 13.082031 -13.527344 14.195312 -15.449219 L 11.785156 -15.449219 L 7.734375 -8.726562 L 7.371094 -8.726562 L 3.320312 -15.449219 L 0.890625 -15.449219 C 2.046875 -13.546875 3.484375 -11.277344 4.921875 -9.070312 C 5.222656 -8.566406 5.832031 -8.058594 6.601562 -8.058594 L 6.601562 -7.835938 C 5.851562 -7.835938 5.164062 -7.210938 4.878906 -6.785156 C 3.28125 -4.375 1.640625 -1.882812 0.464844 0 Z M 0.464844 0 "/></g></g></g><g fill="#f4f4f4" fill-opacity="1"><g transform="translate(181.739552, 206.474283)"><g><path d="M 0.910156 -7.511719 L 0.910156 -6.339844 L 7.574219 -6.339844 L 7.574219 -7.511719 Z M 0.910156 -7.511719 "/></g></g></g><g fill="#f4f4f4" fill-opacity="1"><g transform="translate(193.384373, 206.474283)"><g><path d="M 14.398438 0 C 12.816406 -4.433594 10.246094 -11.5625 8.949219 -15.449219 L 5.546875 -15.449219 C 4.3125 -11.601562 1.601562 -4.191406 0.140625 0 L 2.410156 0 C 2.875 -1.296875 3.363281 -2.714844 3.886719 -4.210938 C 4.878906 -4.230469 5.992188 -4.230469 7.25 -4.230469 C 8.058594 -4.230469 9.394531 -4.210938 10.734375 -4.210938 C 11.300781 -2.652344 11.804688 -1.195312 12.148438 0 Z M 4.332031 -5.546875 C 5.222656 -8.179688 6.175781 -11.078125 7.1875 -14.113281 L 7.289062 -14.113281 C 7.957031 -11.746094 9.152344 -8.546875 10.246094 -5.546875 Z M 4.332031 -5.546875 "/></g></g></g><g fill="#f4f4f4" fill-opacity="1"><g transform="translate(211.104186, 206.474283)"><g><path d="M 1.84375 0 L 4.03125 0 C 3.96875 -2.570312 3.949219 -5.144531 3.949219 -7.734375 C 3.949219 -10.308594 3.96875 -12.878906 4.03125 -15.449219 L 1.84375 -15.449219 C 1.882812 -12.859375 1.902344 -10.308594 1.902344 -7.714844 C 1.902344 -5.144531 1.882812 -2.570312 1.84375 0 Z M 1.84375 0 "/></g></g></g><g fill="#f4f4f4" fill-opacity="1"><g transform="translate(220.157011, 206.474283)"><g><path d="M 1.84375 0 L 11.378906 0 L 11.503906 -1.78125 C 9.113281 -1.761719 6.5 -1.699219 4.050781 -1.699219 C 4.007812 -3.644531 3.988281 -5.832031 3.988281 -7.9375 C 3.988281 -10.367188 4.007812 -12.878906 4.050781 -15.449219 L 1.84375 -15.449219 C 1.863281 -12.859375 1.902344 -10.226562 1.902344 -7.714844 C 1.902344 -5.203125 1.863281 -2.570312 1.84375 0 Z M 1.84375 0 "/></g></g></g><g fill="#f4f4f4" fill-opacity="1"><g transform="translate(234.981081, 206.474283)"><g><path d="M 1.84375 0 L 12.980469 0 L 12.980469 -1.640625 L 4.007812 -1.640625 L 4.007812 -7.027344 L 12.292969 -6.964844 L 12.292969 -8.585938 L 4.007812 -8.523438 L 4.007812 -13.808594 L 12.839844 -13.808594 L 12.839844 -15.449219 L 1.84375 -15.449219 C 1.902344 -13.648438 1.945312 -9.863281 1.945312 -7.695312 C 1.945312 -5.609375 1.902344 -1.761719 1.84375 0 Z M 1.84375 0 "/></g></g></g><g fill="#f4f4f4" fill-opacity="1"><g transform="translate(252.133885, 206.474283)"><g><path d="M 7.453125 0.242188 C 11.097656 0.242188 13.464844 -1.378906 13.507812 -4.171875 C 13.546875 -6.582031 12.273438 -8 7.574219 -8.546875 C 4.679688 -9.050781 3.542969 -9.515625 3.542969 -11.277344 C 3.542969 -12.230469 4.007812 -13.019531 4.636719 -13.527344 C 5.222656 -13.910156 6.257812 -14.054688 7.230469 -14.054688 C 10.023438 -14.054688 10.8125 -12.777344 11.320312 -10.773438 L 13.386719 -10.996094 C 12.796875 -13.953125 11.136719 -15.652344 7.351562 -15.652344 C 3.949219 -15.652344 1.4375 -14.296875 1.4375 -11.421875 C 1.4375 -8.789062 3.441406 -7.390625 7.230469 -7.027344 C 10.488281 -6.539062 11.441406 -5.832031 11.421875 -4.253906 C 11.402344 -3.382812 11.097656 -2.632812 10.570312 -2.066406 C 9.941406 -1.539062 8.789062 -1.316406 7.492188 -1.316406 C 4.617188 -1.316406 3.605469 -2.691406 3.238281 -4.65625 L 0.972656 -4.496094 C 1.378906 -1.316406 3.300781 0.242188 7.453125 0.242188 Z M 7.453125 0.242188 "/></g></g></g></svg>