<svg xmlns="http://www.w3.org/2000/svg" xmlns:xlink="http://www.w3.org/1999/xlink" width="500" zoomAndPan="magnify" viewBox="0 0 375 374.999991" height="500" preserveAspectRatio="xMidYMid meet" version="1.0"><defs><g/></defs><rect x="-37.5" width="450" fill="#ffffff" y="-37.499999" height="449.999989" fill-opacity="1"/><rect x="-37.5" width="450" fill="#2b2b2b" y="-37.499999" height="449.999989" fill-opacity="1"/><g fill="#f4f4f4" fill-opacity="1"><g transform="translate(156.918751, 287.691543)"><g><path d="M 17.867188 0 L 110.347656 0 L 111.527344 -17.277344 C 88.359375 -17.082031 63.027344 -16.492188 39.269531 -16.492188 C 38.878906 -35.34375 38.679688 -56.546875 38.679688 -76.96875 C 38.679688 -100.53125 38.878906 -124.878906 39.269531 -149.816406 L 17.867188 -149.816406 C 18.0625 -124.683594 18.457031 -99.15625 18.457031 -74.808594 C 18.457031 -50.460938 18.0625 -24.9375 17.867188 0 Z M 17.867188 0 "/></g></g></g><g fill="#f4f4f4" fill-opacity="1"><g transform="translate(105.173857, 249.007133)"><g><path d="M 17.867188 0 L 110.347656 0 L 111.527344 -17.277344 C 88.359375 -17.082031 63.027344 -16.492188 39.269531 -16.492188 C 38.878906 -35.34375 38.679688 -56.546875 38.679688 -76.96875 C 38.679688 -100.53125 38.878906 -124.878906 39.269531 -149.816406 L 17.867188 -149.816406 C 18.0625 -124.683594 18.457031 -99.15625 18.457031 -74.808594 C 18.457031 -50.460938 18.0625 -24.9375 17.867188 0 Z M 17.867188 0 "/></g></g></g></svg>